<svg xmlns="http://www.w3.org/2000/svg" xmlns:xlink="http://www.w3.org/1999/xlink" width="300" zoomAndPan="magnify" viewBox="0 0 224.87999 225" height="300" preserveAspectRatio="xMidYMid meet" version="1.0"><defs><clipPath id="9ed86dea67"><path d="M 8.046875 8.109375 L 217 8.109375 L 217 217 L 8.046875 217 Z M 8.046875 8.109375 " clip-rule="nonzero"/></clipPath></defs><g clip-path="url(#9ed86dea67)"><path fill="#d00530" d="M 205.285156 216.867188 C 211.648438 216.867188 216.804688 211.710938 216.804688 205.34375 L 216.804688 19.628906 C 216.804688 13.265625 211.648438 8.109375 205.285156 8.109375 L 19.570312 8.109375 C 13.203125 8.109375 8.046875 13.265625 8.046875 19.628906 L 8.046875 205.34375 C 8.046875 211.707031 13.203125 216.867188 19.570312 216.867188 Z M 205.285156 216.867188 " fill-opacity="1" fill-rule="nonzero"/></g><path fill="#ffffff" d="M 152.085938 216.867188 L 152.085938 136.023438 L 179.222656 136.023438 L 183.285156 104.519531 L 152.085938 104.519531 L 152.085938 84.402344 C 152.085938 75.28125 154.621094 69.066406 167.703125 69.066406 L 184.386719 69.058594 L 184.386719 40.878906 C 181.5 40.496094 171.597656 39.636719 160.074219 39.636719 C 136.019531 39.636719 119.550781 54.320312 119.550781 81.285156 L 119.550781 104.519531 L 92.347656 104.519531 L 92.347656 136.023438 L 119.550781 136.023438 L 119.550781 216.867188 Z M 152.085938 216.867188 " fill-opacity="1" fill-rule="nonzero"/></svg>