<svg xmlns="http://www.w3.org/2000/svg" xmlns:xlink="http://www.w3.org/1999/xlink" width="300" zoomAndPan="magnify" viewBox="0 0 224.87999 225" height="300" preserveAspectRatio="xMidYMid meet" version="1.0"><defs><clipPath id="d81e7cf51d"><path d="M 9.363281 9.421875 L 215.503906 9.421875 L 215.503906 215.5625 L 9.363281 215.5625 Z M 9.363281 9.421875 " clip-rule="nonzero"/></clipPath></defs><g clip-path="url(#d81e7cf51d)"><path fill="#d00530" d="M 164.464844 9.421875 L 60.390625 9.421875 C 32.246094 9.421875 9.351562 32.320312 9.351562 60.464844 L 9.351562 164.539062 C 9.351562 192.683594 32.246094 215.578125 60.390625 215.578125 L 164.464844 215.578125 C 192.609375 215.578125 215.507812 192.683594 215.507812 164.539062 L 215.507812 60.464844 C 215.507812 32.320312 192.609375 9.421875 164.464844 9.421875 Z M 205.84375 164.539062 C 205.84375 187.355469 187.28125 205.917969 164.464844 205.917969 L 60.390625 205.917969 C 37.574219 205.917969 19.011719 187.355469 19.011719 164.539062 L 19.011719 60.464844 C 19.011719 37.648438 37.574219 19.085938 60.390625 19.085938 L 164.464844 19.085938 C 187.28125 19.085938 205.84375 37.648438 205.84375 60.464844 Z M 205.84375 164.539062 " fill-opacity="1" fill-rule="nonzero"/></g><path fill="#d00530" d="M 112.429688 51.066406 C 78.558594 51.066406 51 78.628906 51 112.5 C 51 146.371094 78.558594 173.929688 112.429688 173.929688 C 146.304688 173.929688 173.863281 146.371094 173.863281 112.5 C 173.863281 78.628906 146.304688 51.066406 112.429688 51.066406 Z M 112.429688 164.269531 C 83.886719 164.269531 60.664062 141.042969 60.664062 112.5 C 60.664062 83.957031 83.886719 60.730469 112.429688 60.730469 C 140.972656 60.730469 164.199219 83.957031 164.199219 112.5 C 164.199219 141.042969 140.972656 164.269531 112.429688 164.269531 Z M 112.429688 164.269531 " fill-opacity="1" fill-rule="nonzero"/><path fill="#d00530" d="M 179.835938 41.589844 C 179.835938 42.128906 179.78125 42.660156 179.675781 43.191406 C 179.570312 43.71875 179.417969 44.230469 179.210938 44.730469 C 179.003906 45.226562 178.75 45.699219 178.453125 46.148438 C 178.152344 46.59375 177.8125 47.007812 177.429688 47.390625 C 177.050781 47.769531 176.636719 48.113281 176.1875 48.410156 C 175.742188 48.710938 175.265625 48.960938 174.769531 49.167969 C 174.273438 49.375 173.757812 49.53125 173.230469 49.636719 C 172.703125 49.742188 172.167969 49.792969 171.628906 49.792969 C 171.089844 49.792969 170.558594 49.742188 170.03125 49.636719 C 169.5 49.53125 168.988281 49.375 168.488281 49.167969 C 167.992188 48.960938 167.519531 48.710938 167.070312 48.410156 C 166.625 48.113281 166.210938 47.769531 165.828125 47.390625 C 165.449219 47.007812 165.105469 46.59375 164.808594 46.148438 C 164.507812 45.699219 164.257812 45.226562 164.050781 44.730469 C 163.84375 44.230469 163.6875 43.71875 163.582031 43.191406 C 163.476562 42.660156 163.425781 42.128906 163.425781 41.589844 C 163.425781 41.050781 163.476562 40.515625 163.582031 39.988281 C 163.6875 39.460938 163.84375 38.945312 164.050781 38.449219 C 164.257812 37.953125 164.507812 37.480469 164.808594 37.03125 C 165.105469 36.582031 165.449219 36.167969 165.828125 35.789062 C 166.210938 35.40625 166.625 35.066406 167.070312 34.765625 C 167.519531 34.46875 167.992188 34.214844 168.488281 34.007812 C 168.988281 33.800781 169.5 33.648438 170.027344 33.542969 C 170.558594 33.4375 171.089844 33.382812 171.628906 33.382812 C 172.167969 33.382812 172.703125 33.4375 173.230469 33.542969 C 173.757812 33.648438 174.273438 33.800781 174.769531 34.007812 C 175.265625 34.214844 175.742188 34.46875 176.1875 34.765625 C 176.636719 35.066406 177.050781 35.40625 177.429688 35.789062 C 177.8125 36.167969 178.152344 36.582031 178.453125 37.03125 C 178.75 37.480469 179.003906 37.953125 179.210938 38.449219 C 179.417969 38.945312 179.570312 39.460938 179.675781 39.988281 C 179.78125 40.515625 179.835938 41.050781 179.835938 41.589844 Z M 179.835938 41.589844 " fill-opacity="1" fill-rule="nonzero"/></svg>