<svg xmlns="http://www.w3.org/2000/svg" xmlns:xlink="http://www.w3.org/1999/xlink" width="300" zoomAndPan="magnify" viewBox="0 0 224.87999 225" height="300" preserveAspectRatio="xMidYMid meet" version="1.0"><defs><clipPath id="f8e358bbde"><path d="M 20.03125 77 L 96 77 L 96 196 L 20.03125 196 Z M 20.03125 77 " clip-rule="nonzero"/></clipPath><clipPath id="24fd9538a0"><path d="M 68 6.28125 L 196 6.28125 L 196 182 L 68 182 Z M 68 6.28125 " clip-rule="nonzero"/></clipPath></defs><path fill="#87f1e9" d="M 92.671875 89.070312 L 92.671875 81.175781 C 56.285156 76.007812 23.023438 104.59375 23.023438 141.953125 C 23.023438 162.714844 33.398438 181.089844 49.226562 192.203125 C 38.628906 180.871094 32.734375 165.933594 32.742188 150.414062 C 32.742188 117.054688 59.496094 89.847656 92.671875 89.070312 " fill-opacity="1" fill-rule="nonzero"/><path fill="#87f1e9" d="M 94.117188 178.445312 C 109.21875 178.445312 121.535156 166.433594 122.097656 151.460938 L 122.148438 17.824219 L 146.5625 17.824219 C 146.042969 15.03125 145.78125 12.199219 145.777344 9.363281 L 112.429688 9.363281 L 112.375 143.003906 C 111.609375 163.636719 89.472656 176.308594 71.394531 166.761719 C 76.648438 174.089844 85.105469 178.4375 94.117188 178.445312 M 192.167969 63.1875 L 192.167969 55.757812 C 183.195312 55.769531 174.417969 53.15625 166.90625 48.25 C 173.492188 55.832031 182.355469 61.070312 192.171875 63.1875 " fill-opacity="1" fill-rule="nonzero"/><path fill="#da004f" d="M 166.90625 48.242188 C 159.546875 39.820312 155.492188 29.015625 155.496094 17.828125 L 146.5625 17.828125 C 148.898438 30.320312 156.253906 41.3125 166.90625 48.242188 M 84.398438 113.917969 C 68.925781 113.9375 56.386719 126.476562 56.367188 141.949219 C 56.378906 152.367188 62.164062 161.921875 71.390625 166.761719 C 67.941406 162.007812 66.085938 156.289062 66.085938 150.414062 C 66.101562 134.941406 78.640625 122.398438 94.117188 122.378906 C 97.007812 122.378906 99.777344 122.855469 102.390625 123.675781 L 102.390625 89.632812 C 98.609375 89.097656 95.765625 89.011719 92.671875 89.066406 L 92.671875 115.214844 C 89.996094 114.367188 87.207031 113.925781 84.398438 113.917969 " fill-opacity="1" fill-rule="nonzero"/><path fill="#da004f" d="M 192.167969 63.1875 L 192.167969 89.101562 C 174.875 89.101562 158.859375 83.570312 145.777344 74.183594 L 145.777344 141.953125 C 145.777344 175.796875 118.246094 203.328125 84.402344 203.328125 C 71.324219 203.328125 59.195312 199.203125 49.226562 192.203125 C 60.8125 204.695312 77.082031 211.796875 94.117188 211.789062 C 127.960938 211.789062 155.496094 184.257812 155.496094 150.417969 L 155.496094 82.652344 C 169.011719 92.367188 185.242188 97.589844 201.890625 97.570312 L 201.890625 64.214844 C 198.550781 64.214844 195.304688 63.851562 192.167969 63.179688 " fill-opacity="1" fill-rule="nonzero"/><path fill="#d00530" d="M 145.773438 141.949219 L 145.773438 74.183594 C 159.289062 83.902344 175.519531 89.121094 192.167969 89.101562 L 192.167969 63.1875 C 182.351562 61.070312 173.488281 55.828125 166.902344 48.242188 C 156.25 41.3125 148.898438 30.320312 146.558594 17.828125 L 122.148438 17.828125 L 122.097656 151.46875 C 121.535156 166.433594 109.21875 178.445312 94.117188 178.445312 C 85.105469 178.4375 76.644531 174.085938 71.394531 166.765625 C 62.167969 161.925781 56.378906 152.371094 56.367188 141.953125 C 56.390625 123.117188 74.691406 109.550781 92.671875 115.21875 L 92.671875 89.070312 C 59.496094 89.847656 32.742188 117.054688 32.742188 150.414062 C 32.742188 166.546875 39.011719 181.234375 49.226562 192.203125 C 59.523438 199.453125 71.808594 203.339844 84.398438 203.328125 C 118.246094 203.328125 145.773438 175.792969 145.773438 141.949219 " fill-opacity="1" fill-rule="nonzero"/><g clip-path="url(#f8e358bbde)"><path fill="#000000" d="M 47.511719 194.644531 C 30.3125 182.566406 20.042969 162.867188 20.042969 141.953125 C 20.042969 102.855469 54.835938 72.792969 93.089844 78.226562 C 94.558594 78.433594 95.648438 79.691406 95.648438 81.175781 L 95.648438 89.070312 C 95.648438 90.6875 94.355469 92.011719 92.738281 92.046875 C 61.300781 92.785156 35.722656 118.96875 35.722656 150.414062 C 35.714844 165.230469 41.28125 179.347656 51.402344 190.171875 C 52.445312 191.285156 52.476562 193.007812 51.472656 194.160156 C 50.472656 195.3125 48.761719 195.519531 47.511719 194.644531 Z M 26.003906 141.953125 C 26.003906 151.15625 28.195312 160.097656 32.230469 168.117188 C 30.601562 162.417969 29.761719 156.46875 29.765625 150.414062 C 29.765625 116.476562 56.171875 88.507812 89.691406 86.222656 L 89.691406 83.820312 C 55.902344 80.5625 26.003906 107.457031 26.003906 141.953125 Z M 26.003906 141.953125 " fill-opacity="1" fill-rule="nonzero"/></g><g clip-path="url(#24fd9538a0)"><path fill="#000000" d="M 94.117188 181.425781 C 84.167969 181.414062 74.769531 176.582031 68.972656 168.496094 C 68.167969 167.371094 68.242188 165.84375 69.148438 164.800781 C 70.058594 163.761719 71.5625 163.480469 72.785156 164.125 C 76.347656 166.003906 80.359375 167 84.386719 167 C 84.390625 167 84.394531 167 84.398438 167 C 97.898438 167 108.867188 156.4375 109.394531 142.945312 L 109.453125 9.359375 C 109.453125 7.714844 110.785156 6.382812 112.429688 6.382812 L 145.777344 6.382812 C 147.421875 6.382812 148.753906 7.714844 148.757812 9.359375 C 148.757812 12.011719 149.007812 14.671875 149.492188 17.277344 C 149.835938 19.105469 148.429688 20.800781 146.566406 20.800781 L 125.128906 20.800781 C 125.074219 155.71875 125.078125 151.484375 125.074219 151.574219 C 124.445312 168.3125 110.847656 181.425781 94.117188 181.425781 Z M 83.199219 172.933594 C 99.210938 180.734375 118.390625 169.726562 119.117188 151.402344 L 119.171875 17.820312 C 119.171875 16.175781 120.503906 14.84375 122.148438 14.84375 L 143.109375 14.84375 C 143.015625 14.011719 142.941406 13.175781 142.890625 12.339844 L 115.410156 12.339844 C 115.351562 147.253906 115.355469 143.023438 115.351562 143.113281 C 114.710938 160.375 100.316406 173.609375 83.199219 172.933594 Z M 191.441406 66.078125 C 181.101562 63.824219 171.59375 58.191406 164.65625 50.203125 C 163.683594 49.082031 163.683594 47.410156 164.660156 46.292969 C 165.636719 45.171875 167.289062 44.941406 168.535156 45.753906 C 175.570312 50.351562 183.722656 52.78125 192.121094 52.78125 C 193.976562 52.8125 195.148438 54.230469 195.148438 55.761719 C 195.144531 64.003906 195.179688 63.390625 195.085938 63.8125 C 194.753906 65.351562 193.128906 66.5 191.441406 66.078125 Z M 186.566406 58.425781 C 187.429688 58.753906 188.304688 59.054688 189.191406 59.328125 L 189.191406 58.652344 C 188.3125 58.601562 187.4375 58.523438 186.566406 58.425781 Z M 186.566406 58.425781 " fill-opacity="1" fill-rule="nonzero"/></g><path fill="#000000" d="M 70.007812 169.402344 C 59.769531 164.03125 53.398438 153.511719 53.390625 141.953125 C 53.410156 122.640625 70.988281 108.066406 89.691406 111.417969 L 89.691406 89.066406 C 89.691406 87.445312 90.992188 86.117188 92.617188 86.089844 C 96.027344 86.019531 99.050781 86.152344 102.808594 86.683594 C 104.277344 86.894531 105.367188 88.152344 105.367188 89.632812 L 105.367188 123.675781 C 105.367188 124.625 104.917969 125.519531 104.152344 126.078125 C 103.386719 126.640625 102.398438 126.804688 101.496094 126.519531 C 85.285156 121.425781 69.082031 133.773438 69.066406 150.417969 C 69.066406 155.691406 70.703125 160.742188 73.804688 165.011719 C 74.617188 166.132812 74.550781 167.664062 73.644531 168.710938 C 72.738281 169.761719 71.230469 170.042969 70.007812 169.402344 Z M 84.394531 116.898438 C 64.316406 116.929688 52.539062 139.441406 63.59375 155.902344 C 59.769531 134.5625 78.574219 116.125 99.410156 119.878906 L 99.410156 92.277344 C 98.164062 92.160156 96.90625 92.078125 95.652344 92.039062 L 95.652344 115.214844 C 95.652344 116.167969 95.199219 117.058594 94.429688 117.621094 C 93.664062 118.183594 92.675781 118.34375 91.769531 118.054688 C 89.378906 117.296875 86.894531 116.90625 84.394531 116.898438 Z M 165.28125 50.742188 C 154 43.402344 146.109375 31.605469 143.632812 18.378906 C 143.292969 16.546875 144.699219 14.851562 146.5625 14.851562 L 155.496094 14.851562 C 157.144531 14.851562 158.476562 16.1875 158.476562 17.832031 C 158.472656 28.296875 162.261719 38.402344 169.148438 46.28125 C 170.128906 47.402344 170.132812 49.074219 169.15625 50.195312 C 168.183594 51.316406 166.53125 51.550781 165.28125 50.742188 Z M 150.308594 20.808594 C 151.199219 24.046875 152.464844 27.15625 154.0625 30.082031 C 153.285156 27.058594 152.796875 23.957031 152.605469 20.808594 Z M 150.308594 20.808594 " fill-opacity="1" fill-rule="nonzero"/><path fill="#000000" d="M 47.042969 194.230469 C 46.007812 193.113281 45.980469 191.390625 46.984375 190.242188 C 47.984375 189.09375 49.691406 188.886719 50.941406 189.765625 C 60.800781 196.691406 72.375 200.351562 84.402344 200.351562 C 116.601562 200.351562 142.796875 174.152344 142.796875 141.953125 L 142.796875 74.183594 C 142.796875 73.066406 143.421875 72.042969 144.414062 71.535156 C 145.40625 71.023438 146.605469 71.113281 147.511719 71.765625 C 159.796875 80.578125 174.148438 85.492188 189.1875 86.066406 L 189.1875 63.316406 C 189.101562 61.359375 190.886719 59.855469 192.789062 60.265625 C 195.792969 60.910156 198.851562 61.234375 201.890625 61.234375 C 203.535156 61.234375 204.867188 62.570312 204.867188 64.214844 L 204.867188 97.570312 C 204.867188 99.109375 203.675781 100.550781 201.789062 100.550781 C 186.347656 100.550781 171.488281 96.308594 158.476562 88.226562 L 158.476562 150.417969 C 158.476562 185.902344 129.605469 214.769531 94.121094 214.769531 C 93.699219 214.679688 67.273438 216.046875 47.042969 194.230469 Z M 75.257812 205.660156 C 113.082031 218.628906 152.515625 190.332031 152.515625 150.417969 C 152.542969 78.140625 152.449219 82.605469 152.589844 81.992188 C 151.292969 81.28125 150.015625 80.535156 148.753906 79.753906 L 148.753906 141.953125 C 148.753906 180.910156 114.148438 211.226562 75.257812 205.660156 Z M 178.414062 90.945312 C 185.003906 93.0625 191.882812 94.277344 198.910156 94.535156 L 198.910156 67.101562 C 197.652344 67.027344 196.398438 66.898438 195.148438 66.726562 L 195.148438 89.101562 C 195.148438 90.75 193.816406 92.082031 192.167969 92.082031 C 187.519531 92.082031 182.925781 91.699219 178.414062 90.945312 Z M 178.414062 90.945312 " fill-opacity="1" fill-rule="nonzero"/><path fill="#000000" d="M 47.511719 194.640625 C 47.34375 194.523438 47.183594 194.386719 47.046875 194.234375 C 35.902344 182.265625 29.765625 166.707031 29.765625 150.414062 C 29.765625 115.417969 57.78125 86.90625 92.601562 86.089844 C 94.324219 86.058594 95.648438 87.441406 95.648438 89.070312 L 95.648438 115.21875 C 95.648438 116.167969 95.199219 117.058594 94.433594 117.621094 C 93.667969 118.183594 92.679688 118.34375 91.773438 118.058594 C 89.332031 117.289062 86.851562 116.898438 84.402344 116.898438 C 70.605469 116.917969 59.367188 128.15625 59.347656 141.957031 C 59.359375 151.289062 64.503906 159.789062 72.78125 164.125 C 73.191406 164.339844 73.546875 164.652344 73.816406 165.027344 C 78.496094 171.558594 86.085938 175.460938 94.121094 175.46875 C 107.613281 175.46875 118.585938 164.90625 119.117188 151.410156 L 119.167969 17.828125 C 119.171875 16.183594 120.503906 14.851562 122.148438 14.851562 L 146.5625 14.851562 C 147.996094 14.851562 149.226562 15.871094 149.492188 17.28125 C 151.667969 28.917969 158.605469 39.292969 168.53125 45.746094 C 168.761719 45.898438 168.972656 46.082031 169.15625 46.289062 C 175.277344 53.339844 183.671875 58.304688 192.796875 60.273438 C 194.167969 60.570312 195.148438 61.78125 195.148438 63.1875 L 195.148438 89.101562 C 195.148438 90.652344 193.941406 92.082031 192.070312 92.082031 C 176.625 92.082031 161.765625 87.839844 148.753906 79.757812 L 148.753906 141.949219 C 148.753906 177.4375 119.886719 206.304688 84.402344 206.304688 C 70.617188 206.304688 57.980469 202.011719 47.511719 194.640625 Z M 51.195312 189.945312 C 60.96875 196.753906 72.425781 200.347656 84.34375 200.347656 C 116.710938 200.347656 142.792969 174.0625 142.792969 141.949219 L 142.792969 74.183594 C 142.792969 71.757812 145.542969 70.347656 147.511719 71.761719 C 159.792969 80.59375 174.144531 85.511719 189.1875 86.070312 L 189.1875 65.53125 C 179.859375 63.023438 171.332031 57.757812 164.929688 50.511719 C 154.527344 43.617188 147.0625 32.910156 144.152344 20.808594 L 125.125 20.808594 L 125.074219 151.46875 C 125.074219 151.507812 125.074219 151.542969 125.074219 151.578125 C 124.449219 168.316406 110.847656 181.425781 94.117188 181.425781 C 84.402344 181.417969 75.214844 176.808594 69.390625 169.070312 C 59.515625 163.605469 53.402344 153.28125 53.390625 141.957031 C 53.414062 122.621094 71.027344 108.054688 89.691406 111.417969 L 89.691406 92.199219 C 59.664062 94.496094 35.722656 119.992188 35.722656 150.414062 C 35.722656 165.089844 41.214844 179.117188 51.195312 189.945312 Z M 51.195312 189.945312 " fill-opacity="1" fill-rule="nonzero"/></svg>