<svg xmlns="http://www.w3.org/2000/svg" xmlns:xlink="http://www.w3.org/1999/xlink" width="300" zoomAndPan="magnify" viewBox="0 0 224.87999 225" height="300" preserveAspectRatio="xMidYMid meet" version="1.0"><defs><clipPath id="64f93c9c00"><path d="M 4.476562 4.535156 L 220.359375 4.535156 L 220.359375 220.417969 L 4.476562 220.417969 Z M 4.476562 4.535156 " clip-rule="nonzero"/></clipPath></defs><g clip-path="url(#64f93c9c00)"><path fill="#21e156" d="M 220.390625 112.53125 C 220.390625 172.117188 172.085938 220.421875 112.5 220.421875 C 104.628906 220.433594 96.851562 219.589844 89.164062 217.890625 C 81.476562 216.191406 74.066406 213.679688 66.933594 210.355469 C 62.628906 208.339844 58.113281 207.046875 53.394531 206.46875 C 48.675781 205.890625 43.984375 206.0625 39.320312 206.976562 L 22.476562 210.292969 C 15.339844 211.699219 9.777344 204.175781 13.21875 197.765625 C 19.875 185.351562 20.410156 170.511719 14.5 157.71875 C 11.25 150.675781 8.792969 143.367188 7.125 135.789062 C 5.457031 128.214844 4.617188 120.546875 4.609375 112.789062 C 4.46875 53.148438 52.699219 4.726562 112.339844 4.640625 C 172 4.554688 220.390625 52.890625 220.390625 112.53125 Z M 220.390625 112.53125 " fill-opacity="1" fill-rule="nonzero"/></g><path fill="#ffffff" d="M 204.855469 112.53125 C 204.855469 114.042969 204.816406 115.550781 204.742188 117.0625 C 204.667969 118.570312 204.558594 120.078125 204.410156 121.582031 C 204.261719 123.085938 204.078125 124.585938 203.855469 126.082031 C 203.632812 127.578125 203.375 129.066406 203.078125 130.546875 C 202.785156 132.03125 202.453125 133.503906 202.085938 134.972656 C 201.71875 136.4375 201.316406 137.894531 200.878906 139.339844 C 200.4375 140.785156 199.964844 142.21875 199.457031 143.644531 C 198.945312 145.066406 198.402344 146.476562 197.824219 147.871094 C 197.246094 149.269531 196.632812 150.652344 195.988281 152.015625 C 195.339844 153.382812 194.660156 154.734375 193.949219 156.066406 C 193.238281 157.398438 192.492188 158.714844 191.714844 160.011719 C 190.9375 161.304688 190.128906 162.582031 189.289062 163.839844 C 188.449219 165.097656 187.582031 166.332031 186.679688 167.546875 C 185.78125 168.761719 184.851562 169.949219 183.890625 171.121094 C 182.933594 172.289062 181.945312 173.433594 180.929688 174.550781 C 179.914062 175.671875 178.875 176.765625 177.804688 177.835938 C 176.734375 178.902344 175.640625 179.945312 174.523438 180.960938 C 173.402344 181.976562 172.257812 182.960938 171.089844 183.921875 C 169.921875 184.878906 168.730469 185.808594 167.515625 186.710938 C 166.300781 187.609375 165.066406 188.480469 163.808594 189.320312 C 162.550781 190.160156 161.277344 190.96875 159.980469 191.746094 C 158.683594 192.523438 157.367188 193.265625 156.035156 193.980469 C 154.703125 194.691406 153.351562 195.371094 151.988281 196.019531 C 150.621094 196.664062 149.238281 197.277344 147.84375 197.855469 C 146.445312 198.433594 145.035156 198.976562 143.613281 199.484375 C 142.191406 199.996094 140.753906 200.46875 139.308594 200.90625 C 137.863281 201.347656 136.40625 201.75 134.941406 202.117188 C 133.472656 202.484375 132 202.816406 130.515625 203.109375 C 129.035156 203.40625 127.546875 203.664062 126.050781 203.886719 C 124.554688 204.105469 123.054688 204.292969 121.550781 204.441406 C 120.046875 204.589844 118.542969 204.699219 117.03125 204.773438 C 115.523438 204.847656 114.011719 204.886719 112.5 204.886719 C 110.988281 204.886719 109.476562 204.847656 107.96875 204.773438 C 106.457031 204.699219 104.953125 204.589844 103.449219 204.441406 C 101.945312 204.292969 100.445312 204.105469 98.949219 203.886719 C 97.453125 203.664062 95.964844 203.40625 94.484375 203.109375 C 93 202.816406 91.527344 202.484375 90.058594 202.117188 C 88.59375 201.75 87.136719 201.347656 85.691406 200.90625 C 84.246094 200.46875 82.808594 199.996094 81.386719 199.484375 C 79.964844 198.976562 78.554688 198.433594 77.15625 197.855469 C 75.761719 197.277344 74.378906 196.664062 73.011719 196.019531 C 71.648438 195.371094 70.296875 194.691406 68.964844 193.980469 C 67.632812 193.265625 66.316406 192.523438 65.019531 191.746094 C 63.722656 190.96875 62.449219 190.160156 61.191406 189.320312 C 59.933594 188.480469 58.699219 187.609375 57.484375 186.710938 C 56.269531 185.808594 55.078125 184.878906 53.910156 183.921875 C 52.742188 182.960938 51.597656 181.976562 50.480469 180.960938 C 49.359375 179.945312 48.265625 178.902344 47.195312 177.835938 C 46.125 176.765625 45.085938 175.671875 44.070312 174.550781 C 43.054688 173.433594 42.066406 172.289062 41.109375 171.121094 C 40.148438 169.949219 39.21875 168.761719 38.320312 167.546875 C 37.421875 166.332031 36.550781 165.097656 35.710938 163.839844 C 34.871094 162.582031 34.0625 161.304688 33.285156 160.011719 C 32.507812 158.714844 31.761719 157.398438 31.050781 156.066406 C 30.339844 154.734375 29.660156 153.382812 29.011719 152.015625 C 28.367188 150.652344 27.753906 149.269531 27.175781 147.871094 C 26.597656 146.476562 26.054688 145.066406 25.542969 143.644531 C 25.035156 142.21875 24.5625 140.785156 24.121094 139.339844 C 23.683594 137.894531 23.28125 136.4375 22.914062 134.972656 C 22.546875 133.503906 22.214844 132.03125 21.921875 130.546875 C 21.625 129.066406 21.367188 127.578125 21.144531 126.082031 C 20.921875 124.585938 20.738281 123.085938 20.589844 121.582031 C 20.441406 120.078125 20.332031 118.570312 20.257812 117.0625 C 20.183594 115.550781 20.144531 114.042969 20.144531 112.53125 C 20.144531 111.019531 20.183594 109.507812 20.257812 108 C 20.332031 106.488281 20.441406 104.980469 20.589844 103.476562 C 20.738281 101.972656 20.921875 100.472656 21.144531 98.980469 C 21.367188 97.484375 21.625 95.996094 21.921875 94.511719 C 22.214844 93.03125 22.546875 91.554688 22.914062 90.089844 C 23.28125 88.625 23.683594 87.167969 24.121094 85.722656 C 24.5625 84.273438 25.035156 82.839844 25.542969 81.417969 C 26.054688 79.992188 26.597656 78.585938 27.175781 77.1875 C 27.753906 75.792969 28.367188 74.410156 29.011719 73.042969 C 29.660156 71.675781 30.339844 70.328125 31.050781 68.996094 C 31.761719 67.660156 32.507812 66.347656 33.285156 65.050781 C 34.0625 63.753906 34.871094 62.476562 35.710938 61.222656 C 36.550781 59.964844 37.421875 58.730469 38.320312 57.515625 C 39.21875 56.300781 40.148438 55.109375 41.109375 53.941406 C 42.066406 52.773438 43.054688 51.628906 44.070312 50.507812 C 45.085938 49.390625 46.125 48.292969 47.195312 47.226562 C 48.265625 46.15625 49.359375 45.117188 50.480469 44.101562 C 51.597656 43.085938 52.742188 42.097656 53.910156 41.140625 C 55.078125 40.179688 56.269531 39.25 57.484375 38.351562 C 58.699219 37.449219 59.933594 36.582031 61.191406 35.742188 C 62.449219 34.902344 63.722656 34.09375 65.019531 33.316406 C 66.316406 32.539062 67.632812 31.792969 68.964844 31.082031 C 70.296875 30.367188 71.648438 29.6875 73.011719 29.042969 C 74.378906 28.398438 75.761719 27.785156 77.15625 27.207031 C 78.554688 26.628906 79.964844 26.082031 81.386719 25.574219 C 82.808594 25.066406 84.246094 24.589844 85.691406 24.152344 C 87.136719 23.714844 88.59375 23.3125 90.058594 22.945312 C 91.527344 22.578125 93 22.246094 94.484375 21.949219 C 95.964844 21.65625 97.453125 21.398438 98.949219 21.175781 C 100.445312 20.953125 101.945312 20.769531 103.449219 20.621094 C 104.953125 20.472656 106.457031 20.363281 107.96875 20.289062 C 109.476562 20.214844 110.988281 20.175781 112.5 20.175781 C 114.011719 20.175781 115.523438 20.214844 117.03125 20.289062 C 118.542969 20.363281 120.046875 20.472656 121.550781 20.621094 C 123.054688 20.769531 124.554688 20.953125 126.050781 21.175781 C 127.546875 21.398438 129.035156 21.65625 130.515625 21.949219 C 132 22.246094 133.472656 22.578125 134.941406 22.945312 C 136.40625 23.3125 137.863281 23.714844 139.308594 24.152344 C 140.753906 24.589844 142.191406 25.066406 143.613281 25.574219 C 145.035156 26.082031 146.445312 26.628906 147.84375 27.207031 C 149.238281 27.785156 150.621094 28.398438 151.988281 29.042969 C 153.351562 29.6875 154.703125 30.367188 156.035156 31.082031 C 157.367188 31.792969 158.683594 32.539062 159.980469 33.316406 C 161.277344 34.09375 162.550781 34.902344 163.808594 35.742188 C 165.066406 36.582031 166.300781 37.449219 167.515625 38.351562 C 168.730469 39.25 169.921875 40.179688 171.089844 41.140625 C 172.257812 42.097656 173.402344 43.085938 174.523438 44.101562 C 175.640625 45.117188 176.734375 46.15625 177.804688 47.226562 C 178.875 48.292969 179.914062 49.390625 180.929688 50.507812 C 181.945312 51.628906 182.933594 52.773438 183.890625 53.941406 C 184.851562 55.109375 185.78125 56.300781 186.679688 57.515625 C 187.582031 58.730469 188.449219 59.964844 189.289062 61.222656 C 190.128906 62.476562 190.9375 63.753906 191.714844 65.050781 C 192.492188 66.347656 193.238281 67.660156 193.949219 68.996094 C 194.660156 70.328125 195.339844 71.675781 195.988281 73.042969 C 196.632812 74.410156 197.246094 75.792969 197.824219 77.1875 C 198.402344 78.585938 198.945312 79.992188 199.457031 81.417969 C 199.964844 82.839844 200.4375 84.273438 200.878906 85.722656 C 201.316406 87.167969 201.71875 88.625 202.085938 90.089844 C 202.453125 91.554688 202.785156 93.03125 203.078125 94.511719 C 203.375 95.996094 203.632812 97.484375 203.855469 98.980469 C 204.078125 100.472656 204.261719 101.972656 204.410156 103.476562 C 204.558594 104.980469 204.667969 106.488281 204.742188 108 C 204.816406 109.507812 204.855469 111.019531 204.855469 112.53125 Z M 204.855469 112.53125 " fill-opacity="1" fill-rule="nonzero"/><path fill="#21e156" d="M 188.363281 112.53125 C 188.363281 113.773438 188.332031 115.011719 188.269531 116.253906 C 188.210938 117.492188 188.117188 118.730469 187.996094 119.964844 C 187.875 121.203125 187.722656 122.433594 187.542969 123.660156 C 187.359375 124.890625 187.148438 126.113281 186.90625 127.332031 C 186.664062 128.546875 186.390625 129.757812 186.089844 130.964844 C 185.789062 132.167969 185.457031 133.363281 185.097656 134.550781 C 184.734375 135.742188 184.347656 136.917969 183.929688 138.085938 C 183.507812 139.257812 183.0625 140.414062 182.589844 141.5625 C 182.113281 142.707031 181.609375 143.84375 181.078125 144.964844 C 180.546875 146.089844 179.988281 147.195312 179.40625 148.292969 C 178.820312 149.386719 178.207031 150.464844 177.570312 151.53125 C 176.929688 152.597656 176.265625 153.644531 175.578125 154.675781 C 174.886719 155.710938 174.171875 156.722656 173.433594 157.722656 C 172.695312 158.71875 171.929688 159.699219 171.144531 160.65625 C 170.355469 161.617188 169.542969 162.558594 168.710938 163.476562 C 167.875 164.398438 167.019531 165.296875 166.144531 166.171875 C 165.265625 167.050781 164.367188 167.90625 163.445312 168.742188 C 162.527344 169.574219 161.585938 170.386719 160.625 171.171875 C 159.667969 171.960938 158.6875 172.722656 157.691406 173.464844 C 156.695312 174.203125 155.679688 174.917969 154.648438 175.609375 C 153.613281 176.296875 152.566406 176.960938 151.5 177.601562 C 150.4375 178.238281 149.355469 178.851562 148.261719 179.433594 C 147.167969 180.019531 146.058594 180.578125 144.933594 181.109375 C 143.8125 181.640625 142.679688 182.144531 141.53125 182.617188 C 140.382812 183.09375 139.226562 183.539062 138.058594 183.957031 C 136.886719 184.375 135.710938 184.765625 134.523438 185.125 C 133.332031 185.488281 132.136719 185.816406 130.933594 186.121094 C 129.730469 186.421875 128.519531 186.691406 127.300781 186.933594 C 126.082031 187.175781 124.859375 187.390625 123.632812 187.570312 C 122.402344 187.753906 121.171875 187.90625 119.9375 188.027344 C 118.699219 188.148438 117.460938 188.242188 116.222656 188.300781 C 114.980469 188.363281 113.742188 188.394531 112.5 188.394531 C 111.257812 188.394531 110.019531 188.363281 108.777344 188.300781 C 107.539062 188.242188 106.300781 188.148438 105.0625 188.027344 C 103.828125 187.90625 102.597656 187.753906 101.367188 187.570312 C 100.140625 187.390625 98.917969 187.175781 97.699219 186.933594 C 96.480469 186.691406 95.269531 186.421875 94.066406 186.121094 C 92.863281 185.816406 91.667969 185.488281 90.476562 185.125 C 89.289062 184.765625 88.113281 184.375 86.941406 183.957031 C 85.773438 183.539062 84.617188 183.09375 83.46875 182.617188 C 82.320312 182.144531 81.1875 181.640625 80.066406 181.109375 C 78.941406 180.578125 77.832031 180.019531 76.738281 179.433594 C 75.644531 178.851562 74.5625 178.238281 73.5 177.601562 C 72.433594 176.960938 71.386719 176.296875 70.351562 175.609375 C 69.320312 174.917969 68.304688 174.203125 67.308594 173.464844 C 66.3125 172.722656 65.332031 171.960938 64.375 171.171875 C 63.414062 170.386719 62.472656 169.574219 61.554688 168.742188 C 60.632812 167.90625 59.734375 167.050781 58.855469 166.171875 C 57.980469 165.296875 57.125 164.398438 56.289062 163.476562 C 55.457031 162.558594 54.644531 161.617188 53.859375 160.65625 C 53.070312 159.699219 52.304688 158.71875 51.566406 157.722656 C 50.828125 156.722656 50.113281 155.710938 49.421875 154.675781 C 48.734375 153.644531 48.070312 152.597656 47.429688 151.53125 C 46.792969 150.464844 46.179688 149.386719 45.59375 148.292969 C 45.011719 147.195312 44.453125 146.089844 43.921875 144.964844 C 43.390625 143.84375 42.886719 142.707031 42.414062 141.5625 C 41.9375 140.414062 41.492188 139.257812 41.070312 138.085938 C 40.652344 136.917969 40.265625 135.742188 39.902344 134.550781 C 39.542969 133.363281 39.210938 132.167969 38.910156 130.964844 C 38.609375 129.757812 38.335938 128.546875 38.09375 127.332031 C 37.851562 126.113281 37.640625 124.890625 37.457031 123.660156 C 37.277344 122.433594 37.125 121.203125 37.003906 119.964844 C 36.882812 118.730469 36.789062 117.492188 36.730469 116.253906 C 36.667969 115.011719 36.636719 113.773438 36.636719 112.53125 C 36.636719 111.289062 36.667969 110.046875 36.730469 108.808594 C 36.789062 107.566406 36.882812 106.332031 37.003906 105.09375 C 37.125 103.859375 37.277344 102.628906 37.457031 101.398438 C 37.640625 100.171875 37.851562 98.949219 38.09375 97.730469 C 38.335938 96.511719 38.609375 95.300781 38.910156 94.097656 C 39.210938 92.894531 39.542969 91.695312 39.902344 90.507812 C 40.265625 89.320312 40.652344 88.140625 41.070312 86.972656 C 41.492188 85.804688 41.9375 84.644531 42.414062 83.5 C 42.886719 82.351562 43.390625 81.21875 43.921875 80.09375 C 44.453125 78.972656 45.011719 77.863281 45.59375 76.769531 C 46.179688 75.675781 46.792969 74.59375 47.429688 73.53125 C 48.070312 72.464844 48.734375 71.414062 49.421875 70.382812 C 50.113281 69.351562 50.828125 68.335938 51.566406 67.339844 C 52.304688 66.34375 53.070312 65.363281 53.859375 64.402344 C 54.644531 63.445312 55.457031 62.503906 56.289062 61.585938 C 57.125 60.664062 57.980469 59.765625 58.855469 58.886719 C 59.734375 58.007812 60.632812 57.152344 61.554688 56.320312 C 62.472656 55.484375 63.414062 54.675781 64.375 53.886719 C 65.332031 53.101562 66.3125 52.335938 67.308594 51.597656 C 68.304688 50.859375 69.320312 50.144531 70.351562 49.453125 C 71.386719 48.761719 72.433594 48.097656 73.5 47.460938 C 74.5625 46.824219 75.644531 46.210938 76.738281 45.625 C 77.832031 45.039062 78.941406 44.480469 80.066406 43.953125 C 81.1875 43.421875 82.320312 42.917969 83.46875 42.441406 C 84.617188 41.96875 85.773438 41.519531 86.941406 41.101562 C 88.113281 40.683594 89.289062 40.296875 90.476562 39.933594 C 91.667969 39.574219 92.863281 39.242188 94.066406 38.941406 C 95.269531 38.640625 96.480469 38.367188 97.699219 38.125 C 98.917969 37.882812 100.140625 37.671875 101.367188 37.488281 C 102.597656 37.308594 103.828125 37.15625 105.0625 37.035156 C 106.300781 36.910156 107.539062 36.820312 108.777344 36.757812 C 110.019531 36.699219 111.257812 36.667969 112.5 36.667969 C 113.742188 36.667969 114.980469 36.699219 116.222656 36.757812 C 117.460938 36.820312 118.699219 36.910156 119.9375 37.035156 C 121.171875 37.15625 122.402344 37.308594 123.632812 37.488281 C 124.859375 37.671875 126.082031 37.882812 127.300781 38.125 C 128.519531 38.367188 129.730469 38.640625 130.933594 38.941406 C 132.136719 39.242188 133.332031 39.574219 134.523438 39.933594 C 135.710938 40.296875 136.886719 40.683594 138.058594 41.101562 C 139.226562 41.519531 140.382812 41.96875 141.53125 42.441406 C 142.679688 42.917969 143.8125 43.421875 144.933594 43.953125 C 146.058594 44.480469 147.167969 45.039062 148.261719 45.625 C 149.355469 46.210938 150.4375 46.824219 151.5 47.460938 C 152.566406 48.097656 153.613281 48.761719 154.648438 49.453125 C 155.679688 50.144531 156.695312 50.859375 157.691406 51.597656 C 158.6875 52.335938 159.667969 53.101562 160.625 53.886719 C 161.585938 54.675781 162.527344 55.484375 163.445312 56.320312 C 164.367188 57.152344 165.265625 58.007812 166.144531 58.886719 C 167.019531 59.765625 167.875 60.664062 168.710938 61.585938 C 169.542969 62.503906 170.355469 63.445312 171.144531 64.402344 C 171.929688 65.363281 172.695312 66.34375 173.433594 67.339844 C 174.171875 68.335938 174.886719 69.351562 175.578125 70.382812 C 176.265625 71.414062 176.929688 72.464844 177.570312 73.53125 C 178.207031 74.59375 178.820312 75.675781 179.40625 76.769531 C 179.988281 77.863281 180.546875 78.972656 181.078125 80.09375 C 181.609375 81.21875 182.113281 82.351562 182.589844 83.5 C 183.0625 84.644531 183.507812 85.804688 183.929688 86.972656 C 184.347656 88.140625 184.734375 89.320312 185.097656 90.507812 C 185.457031 91.695312 185.789062 92.894531 186.089844 94.097656 C 186.390625 95.300781 186.664062 96.511719 186.90625 97.730469 C 187.148438 98.949219 187.359375 100.171875 187.542969 101.398438 C 187.722656 102.628906 187.875 103.859375 187.996094 105.09375 C 188.117188 106.332031 188.210938 107.566406 188.269531 108.808594 C 188.332031 110.046875 188.363281 111.289062 188.363281 112.53125 Z M 188.363281 112.53125 " fill-opacity="1" fill-rule="nonzero"/><path fill="#ffffff" d="M 101.382812 95.503906 L 97.550781 84.050781 C 97.332031 83.398438 97.046875 82.773438 96.695312 82.179688 C 96.34375 81.585938 95.9375 81.035156 95.46875 80.53125 C 95 80.023438 94.488281 79.570312 93.925781 79.171875 C 93.363281 78.773438 92.761719 78.4375 92.128906 78.164062 C 91.496094 77.890625 90.839844 77.6875 90.164062 77.554688 C 89.488281 77.421875 88.804688 77.359375 88.117188 77.371094 C 87.425781 77.378906 86.746094 77.460938 86.074219 77.617188 C 85.402344 77.769531 84.753906 77.992188 84.128906 78.285156 L 77.945312 81.167969 C 77.445312 81.398438 76.96875 81.671875 76.515625 81.988281 C 76.058594 82.300781 75.636719 82.652344 75.242188 83.035156 C 74.847656 83.421875 74.488281 83.835938 74.164062 84.285156 C 73.839844 84.730469 73.554688 85.199219 73.308594 85.695312 C 73.0625 86.1875 72.863281 86.699219 72.703125 87.230469 C 72.542969 87.757812 72.429688 88.296875 72.363281 88.84375 C 72.296875 89.390625 72.273438 89.941406 72.300781 90.492188 C 72.324219 91.042969 72.394531 91.589844 72.511719 92.128906 C 76.382812 110.023438 90.609375 152.882812 138.640625 158.222656 C 139.59375 158.332031 140.542969 158.296875 141.488281 158.125 C 142.429688 157.953125 143.328125 157.648438 144.183594 157.210938 C 145.039062 156.777344 145.8125 156.226562 146.503906 155.5625 C 147.195312 154.898438 147.777344 154.148438 148.25 153.316406 L 151.441406 147.683594 C 151.757812 147.121094 152.015625 146.539062 152.214844 145.925781 C 152.417969 145.316406 152.558594 144.691406 152.636719 144.054688 C 152.714844 143.414062 152.730469 142.777344 152.683594 142.132812 C 152.636719 141.492188 152.527344 140.863281 152.355469 140.242188 C 152.183594 139.625 151.953125 139.027344 151.664062 138.453125 C 151.375 137.878906 151.03125 137.339844 150.636719 136.832031 C 150.238281 136.324219 149.796875 135.859375 149.3125 135.441406 C 148.824219 135.023438 148.300781 134.652344 147.742188 134.335938 L 147.675781 134.300781 L 139.113281 129.542969 C 138.652344 129.285156 138.175781 129.066406 137.679688 128.890625 C 137.183594 128.710938 136.679688 128.574219 136.160156 128.476562 C 135.644531 128.378906 135.121094 128.324219 134.59375 128.3125 C 134.066406 128.296875 133.542969 128.328125 133.023438 128.398438 C 132.5 128.472656 131.988281 128.585938 131.484375 128.738281 C 130.980469 128.894531 130.492188 129.085938 130.019531 129.320312 C 129.546875 129.554688 129.097656 129.824219 128.667969 130.128906 C 128.238281 130.4375 127.839844 130.773438 127.464844 131.144531 C 127.09375 131.515625 126.695312 131.851562 126.269531 132.15625 C 125.84375 132.460938 125.394531 132.730469 124.925781 132.964844 C 124.457031 133.195312 123.972656 133.390625 123.472656 133.546875 C 122.972656 133.699219 122.464844 133.816406 121.945312 133.890625 C 121.429688 133.960938 120.90625 133.992188 120.382812 133.984375 C 119.859375 133.972656 119.339844 133.921875 118.828125 133.828125 C 118.3125 133.734375 117.808594 133.601562 117.3125 133.425781 C 116.820312 133.25 116.34375 133.039062 115.882812 132.785156 C 110.679688 129.925781 103.542969 125.050781 98.542969 117.84375 C 97.980469 117.035156 97.546875 116.164062 97.246094 115.226562 C 96.945312 114.289062 96.789062 113.328125 96.777344 112.34375 C 96.765625 111.359375 96.898438 110.394531 97.179688 109.449219 C 97.457031 108.503906 97.867188 107.621094 98.410156 106.800781 L 100.253906 104.035156 C 101.089844 102.777344 101.605469 101.398438 101.804688 99.898438 C 102.003906 98.402344 101.863281 96.9375 101.382812 95.503906 Z M 101.382812 95.503906 " fill-opacity="1" fill-rule="nonzero"/></svg>