<?xml version="1.0" standalone="no"?>
<!DOCTYPE svg PUBLIC "-//W3C//DTD SVG 20010904//EN"
 "http://www.w3.org/TR/2001/REC-SVG-20010904/DTD/svg10.dtd">
<svg version="1.0" xmlns="http://www.w3.org/2000/svg"
 width="260.000000pt" height="260.000000pt" viewBox="0 0 260.000000 260.000000"
 preserveAspectRatio="xMidYMid meet">
<metadata>
Created by potrace 1.14, written by Peter Selinger 2001-2017
</metadata>
<g transform="translate(0.000000,260.000000) scale(0.100000,-0.100000)"
fill="#000000" stroke="none">
<path d="M1452 2327 c-6 -7 -14 -25 -18 -41 -4 -16 -52 -99 -107 -185 -97
-151 -277 -458 -290 -494 -16 -42 -272 -397 -287 -397 -5 0 -32 -17 -60 -37
-35 -26 -49 -43 -46 -55 2 -10 0 -18 -5 -18 -14 0 -10 -26 6 -40 13 -11 20 -9
39 9 14 13 26 18 30 12 4 -5 2 -13 -4 -16 -7 -4 -1 -18 14 -36 14 -16 27 -37
31 -48 3 -10 -15 -88 -40 -172 -59 -195 -106 -373 -112 -421 -4 -27 0 -42 15
-58 18 -20 20 -20 41 -3 20 17 60 97 82 168 14 46 37 191 44 275 15 198 36
268 77 254 10 -3 53 6 96 20 43 14 88 23 100 19 27 -7 105 49 161 114 31 36
43 44 57 38 17 -7 17 -9 3 -12 -15 -4 -24 -20 -27 -47 0 -5 -14 -18 -31 -28
-30 -20 -41 -38 -21 -38 6 0 10 -5 10 -11 0 -5 -4 -7 -10 -4 -5 3 -10 -3 -10
-15 0 -20 -1 -20 -25 -4 -31 20 -33 9 -2 -17 12 -10 16 -18 10 -19 -7 0 -13
-10 -13 -22 0 -21 0 -21 21 -2 12 10 24 17 27 14 3 -3 9 7 13 22 4 16 30 57
58 91 54 69 190 201 198 194 5 -6 -57 -129 -70 -138 -4 -3 -9 -13 -11 -22 -1
-9 -11 -27 -23 -39 -29 -32 -34 -74 -12 -94 16 -14 19 -14 43 1 14 10 26 25
26 34 0 54 309 365 336 338 9 -8 -15 -47 -58 -96 -47 -54 -98 -155 -105 -208
-5 -35 -1 -45 28 -77 26 -31 38 -37 61 -34 16 3 31 1 34 -4 3 -5 11 -5 17 1 7
5 21 11 32 13 11 1 25 6 30 11 6 4 39 26 75 48 82 52 110 78 110 101 0 22 -8
23 -29 4 -9 -8 -56 -39 -105 -70 -93 -58 -134 -68 -179 -45 -29 15 -37 28 -37
59 0 43 35 103 100 175 59 66 100 122 100 137 0 3 -9 4 -19 1 -18 -5 -19 -2
-9 35 11 44 38 49 38 7 0 -13 5 -27 11 -30 7 -5 9 6 7 31 -3 36 -6 39 -35 42
-32 3 -123 -40 -123 -58 0 -4 -9 -10 -21 -13 -11 -3 -23 -15 -26 -26 -3 -12
-9 -21 -12 -21 -4 0 -24 -17 -44 -37 -21 -20 -37 -33 -37 -28 0 4 -11 -4 -25
-19 -13 -14 -27 -26 -30 -26 -10 0 17 43 41 64 56 49 -21 121 -80 75 -25 -20
-36 -16 -36 13 0 13 -8 18 -29 18 -32 0 -46 -13 -56 -52 -4 -14 -22 -44 -41
-66 -19 -22 -34 -45 -34 -51 0 -10 -12 -14 -26 -8 -4 1 -11 -9 -16 -23 -7 -19
-11 -22 -18 -10 -7 11 -11 8 -19 -13 -6 -16 -15 -25 -21 -22 -10 6 -130 -62
-130 -75 0 -13 -102 -40 -150 -40 -84 0 -84 -6 40 290 25 60 92 163 201 310
110 148 280 406 327 498 24 45 49 82 57 82 11 0 13 8 8 33 -7 38 -2 33 -40 40
-19 4 -35 1 -41 -6z m-68 -224 c-44 -78 -254 -392 -267 -400 -7 -4 -3 6 7 22
11 17 46 74 77 127 56 94 196 298 205 298 3 0 -7 -21 -22 -47z m-526 -886
c-48 -117 -53 -124 -66 -106 -8 11 -20 18 -28 15 -7 -3 21 46 63 109 42 64 78
114 79 112 2 -2 -20 -60 -48 -130z m-112 -449 c-8 -124 -20 -184 -61 -285 -17
-42 -37 -59 -29 -25 2 9 15 76 29 147 24 122 52 225 61 225 2 0 2 -28 0 -62z
m-38 -315 c-14 -34 -28 -51 -28 -36 0 22 19 63 30 63 6 0 5 -10 -2 -27z"/>
</g>
</svg>
